<svg width="227" height="59" viewBox="0 0 227 59" fill="none" xmlns="http://www.w3.org/2000/svg">
<path d="M211.816 0H15.1839C6.79808 0 0 6.77313 0 15.1282V43.8718C0 52.2269 6.79808 59 15.1839 59H211.816C220.202 59 227 52.2269 227 43.8718V15.1282C227 6.77313 220.202 0 211.816 0Z" fill="#ECA740"/>
<path opacity="0.5" d="M32.2304 27.5099C31.0924 27.9963 29.801 28.5479 28.1273 28.5479C27.4272 28.5465 26.7304 28.4506 26.0559 28.2627L27.2135 40.1307C27.2545 40.6266 27.4808 41.0891 27.8475 41.4262C28.2142 41.7634 28.6943 41.9504 29.1928 41.9504C29.1928 41.9504 30.8341 42.0355 31.3818 42.0355C31.9713 42.0355 33.7387 41.9504 33.7387 41.9504C34.2371 41.9504 34.7172 41.7631 35.0838 41.426C35.4504 41.0889 35.6766 40.6266 35.7176 40.1307L36.9574 27.0162C36.4034 26.8272 35.8442 26.7017 35.2138 26.7017C34.1236 26.7012 33.2452 27.0762 32.2304 27.5099Z" fill="white"/>
<path d="M42.4169 21.3403L42.2415 20.4596C42.0841 19.6694 41.7269 18.9227 40.9123 18.6372C40.6511 18.5458 40.3548 18.5065 40.1546 18.3174C39.9543 18.1283 39.8952 17.8346 39.8489 17.5622C39.7631 17.0623 39.6825 16.562 39.5946 16.063C39.5187 15.6339 39.4586 15.1519 39.261 14.7584C39.0037 14.2299 38.4699 13.9208 37.9391 13.7163C37.6671 13.6152 37.3895 13.5297 37.1077 13.4602C35.7815 13.1118 34.3871 12.9838 33.0227 12.9108C31.3851 12.8208 29.7431 12.8479 28.1093 12.9919C26.8933 13.102 25.6126 13.2352 24.457 13.6539C24.0346 13.8073 23.5994 13.9912 23.2783 14.3161C22.8842 14.7153 22.7556 15.3326 23.0433 15.8303C23.2478 16.1838 23.5943 16.4335 23.9618 16.5987C24.4404 16.8116 24.9403 16.9736 25.4531 17.082C26.8809 17.3962 28.3597 17.5195 29.8184 17.5721C31.4352 17.637 33.0546 17.5843 34.6636 17.4145C35.0615 17.3709 35.4587 17.3188 35.8552 17.2579C36.3222 17.1865 36.6219 16.5787 36.4843 16.1552C36.3196 15.6489 35.8771 15.4525 35.3767 15.5289C35.303 15.5404 35.2296 15.5511 35.1559 15.5618L35.1028 15.5695C34.9332 15.5908 34.7637 15.6107 34.5942 15.6292C34.244 15.6668 33.893 15.6975 33.5411 15.7214C32.753 15.7761 31.9628 15.8012 31.173 15.8025C30.3969 15.8025 29.6204 15.7807 28.846 15.73C28.4927 15.7069 28.1402 15.6776 27.7886 15.642C27.6287 15.6254 27.4692 15.6079 27.3097 15.5882L27.1578 15.569L27.1249 15.5643L26.9675 15.5417C26.6459 15.4935 26.3243 15.438 26.0062 15.3709C25.9741 15.3639 25.9453 15.3461 25.9247 15.3205C25.9042 15.295 25.8929 15.2633 25.8929 15.2305C25.8929 15.1978 25.9042 15.166 25.9247 15.1404C25.9453 15.115 25.9741 15.0972 26.0062 15.0901H26.0122C26.2879 15.0316 26.5657 14.9816 26.8444 14.9381C26.9374 14.9236 27.0305 14.9094 27.124 14.8954H27.1266C27.3011 14.8839 27.4765 14.8527 27.6501 14.8322C29.161 14.6758 30.6808 14.6224 32.1991 14.6725C32.9361 14.6939 33.6727 14.737 34.4063 14.8113C34.5642 14.8275 34.7211 14.8446 34.878 14.8638C34.9381 14.8711 34.9985 14.8796 35.059 14.8869L35.1807 14.9044C35.5358 14.957 35.889 15.0209 36.2403 15.096C36.7608 15.2087 37.4292 15.2454 37.6608 15.8132C37.7346 15.9934 37.768 16.1936 37.8088 16.3827L37.8606 16.6239C37.862 16.6282 37.863 16.6327 37.8636 16.6372C37.9863 17.2064 38.109 17.7755 38.2319 18.3447C38.241 18.3868 38.2411 18.4302 38.2325 18.4724C38.224 18.5145 38.2067 18.5544 38.182 18.5896C38.1572 18.6248 38.1253 18.6546 38.0885 18.677C38.0517 18.6994 38.0106 18.714 37.9678 18.72H37.9644L37.8893 18.7302L37.8152 18.74C37.5802 18.7705 37.345 18.799 37.1094 18.8254C36.6454 18.8781 36.1808 18.9236 35.7154 18.9621C34.7907 19.0386 33.8641 19.0888 32.9356 19.1127C32.4626 19.1252 31.9897 19.1311 31.5168 19.1302C29.6349 19.1288 27.7546 19.0198 25.8853 18.804C25.6829 18.7801 25.4805 18.7546 25.2781 18.7285C25.4351 18.7486 25.164 18.7131 25.1091 18.7055C24.9805 18.6876 24.8519 18.6689 24.7232 18.6496C24.2915 18.5851 23.8623 18.5056 23.4314 18.436C22.9104 18.3507 22.4122 18.3934 21.9409 18.6496C21.5541 18.8603 21.241 19.1835 21.0435 19.5759C20.8402 19.9943 20.7798 20.4498 20.6889 20.8993C20.598 21.3488 20.4565 21.8325 20.5101 22.294C20.6254 23.2899 21.3248 24.0993 22.3307 24.2803C23.277 24.4511 24.2285 24.5894 25.1825 24.7072C28.9302 25.1642 32.7163 25.2189 36.4757 24.8703C36.7818 24.8419 37.0875 24.8108 37.3928 24.7773C37.4882 24.7668 37.5846 24.7777 37.6752 24.8093C37.7658 24.8407 37.8481 24.892 37.9162 24.9593C37.9843 25.0266 38.0364 25.1082 38.0686 25.1981C38.101 25.2881 38.1127 25.3841 38.1029 25.4791L38.0077 26.4003C37.8159 28.2618 37.624 30.1233 37.4323 31.9846C37.2321 33.9392 37.0308 35.8937 36.8281 37.8479C36.7709 38.3984 36.7138 38.9487 36.6566 39.4987C36.6017 40.0406 36.594 40.5993 36.4906 41.1348C36.3277 41.9766 35.7553 42.4936 34.9201 42.6827C34.1548 42.8561 33.3731 42.9471 32.5884 42.9541C31.7183 42.9588 30.8488 42.9204 29.9788 42.9251C29.0501 42.9303 27.9126 42.8449 27.1956 42.1567C26.5657 41.5523 26.4787 40.6058 26.3929 39.7873C26.2786 38.7038 26.1653 37.6206 26.0529 36.5374L25.4226 30.5143L25.0148 26.6172C25.0079 26.5527 25.0011 26.4891 24.9947 26.4242C24.9458 25.9593 24.6152 25.5042 24.0942 25.5277C23.6483 25.5474 23.1415 25.9247 23.1938 26.4242L23.4961 29.3135L24.1213 35.29C24.2994 36.9876 24.477 38.6854 24.6542 40.3837C24.6885 40.709 24.7207 41.0352 24.7567 41.3605C24.9527 43.1382 26.3162 44.0961 28.0047 44.3658C28.9909 44.5239 30.0011 44.5563 31.0019 44.5724C32.2848 44.5931 33.5806 44.6422 34.8424 44.4107C36.7123 44.069 38.1153 42.826 38.3155 40.8978C38.3728 40.3411 38.4299 39.7843 38.487 39.2273C38.6771 37.3854 38.8669 35.5433 39.0565 33.7011L39.6765 27.6819L39.9608 24.9232C39.975 24.7864 40.033 24.6578 40.1263 24.5564C40.2195 24.455 40.3431 24.3862 40.4788 24.3602C41.0134 24.2564 41.5246 24.0792 41.9049 23.6741C42.5103 23.0291 42.6308 22.1881 42.4169 21.3403ZM22.3032 21.9353C22.3114 21.9316 22.2964 22.0011 22.2899 22.0335C22.2886 21.9844 22.2912 21.9409 22.3032 21.9353ZM22.3551 22.335C22.3594 22.3319 22.3723 22.349 22.3856 22.3695C22.3654 22.3507 22.3526 22.3366 22.3547 22.335H22.3551ZM22.4062 22.402C22.4246 22.4331 22.4344 22.4528 22.4062 22.402V22.402ZM22.5087 22.4848H22.5112C22.5112 22.4878 22.5159 22.4908 22.5176 22.4937C22.5148 22.4905 22.5116 22.4875 22.5082 22.4848H22.5087ZM40.4539 22.361C40.2618 22.5428 39.9723 22.6274 39.6863 22.6697C36.4791 23.1435 33.2251 23.3834 29.9827 23.2775C27.6621 23.1986 25.366 22.942 23.0686 22.6188C22.8435 22.5872 22.5995 22.5462 22.4447 22.381C22.1532 22.0694 22.2964 21.4419 22.3723 21.0653C22.4417 20.7204 22.5746 20.2607 22.9867 20.2116C23.6299 20.1365 24.3768 20.4066 25.0131 20.5027C25.7792 20.6191 26.5481 20.7123 27.3199 20.7824C30.6138 21.0811 33.963 21.0346 37.2423 20.5975C37.84 20.5175 38.4356 20.4246 39.029 20.3187C39.5577 20.2244 40.1439 20.0472 40.4633 20.5923C40.6824 20.9637 40.7115 21.4606 40.6777 21.8803C40.6673 22.0631 40.587 22.2351 40.4534 22.361H40.4539Z" fill="white"/>
<path d="M59.5591 35.8237C58.2988 35.8237 57.3953 35.5287 56.8487 34.9387C56.3021 34.3336 56.0288 33.5393 56.0288 32.556C56.0288 32.2988 56.0516 31.9887 56.0971 31.6256C56.1427 31.2625 56.2034 30.8238 56.2793 30.3095C56.4008 29.5682 56.4919 28.9101 56.5526 28.3352C56.6134 27.7452 56.6437 27.1023 56.6437 26.4064C56.6437 25.6046 56.621 24.9541 56.5754 24.4548C56.3173 24.6061 56.1275 24.6818 56.006 24.6818C55.7631 24.6818 55.6416 24.4095 55.6416 23.8648C55.6416 23.4412 55.7327 23.0857 55.9149 22.7983C56.1123 22.4957 56.4312 22.2159 56.8715 21.9587C57.3118 21.6864 57.866 21.4519 58.5341 21.2552C59.2174 21.0586 59.9463 20.9602 60.7206 20.9602C61.9809 20.9602 62.9375 21.2477 63.5904 21.8225C64.2433 22.3974 64.5698 23.1538 64.5698 24.0918C64.5698 24.6969 64.4407 25.2566 64.1826 25.771C63.9244 26.2853 63.56 26.7392 63.0893 27.1325C64.9873 27.4351 65.9363 28.5243 65.9363 30.4002C65.9363 31.4138 65.6478 32.3366 65.0708 33.1687C64.4938 34.0007 63.7119 34.6512 62.7249 35.1202C61.7683 35.5892 60.713 35.8237 59.5591 35.8237ZM60.4701 33.3048C61.1534 33.3048 61.7683 33.2141 62.3149 33.0325C62.8768 32.8359 63.3247 32.556 63.6587 32.1929C63.9928 31.8298 64.1598 31.4062 64.1598 30.9221C64.1598 30.3019 63.9396 29.8632 63.4993 29.606C63.059 29.3488 62.5503 29.2202 61.9733 29.2202C61.7304 29.2202 61.4267 29.2429 61.0623 29.2883C60.9104 29.3186 60.7358 29.3337 60.5384 29.3337C60.2044 29.3337 59.9235 29.1975 59.6957 28.9252C59.4831 28.6529 59.3769 28.3125 59.3769 27.9041C59.3769 27.6166 59.5059 27.4351 59.764 27.3595C61.6165 26.8753 62.5427 26.0357 62.5427 24.8406C62.5427 23.8875 61.8822 23.411 60.5612 23.411C60.0753 23.411 59.4755 23.4942 58.7619 23.6606C58.7619 24.4019 58.7239 25.181 58.648 25.9979C58.5721 26.7997 58.4582 27.6393 58.3064 28.5168C58.2153 29.1219 58.1394 29.6362 58.0786 30.0598C58.0331 30.4683 58.0103 30.8011 58.0103 31.0583C58.0103 31.8752 58.2153 32.4577 58.6252 32.8056C59.0352 33.1384 59.6502 33.3048 60.4701 33.3048ZM70.6301 35.8464C69.8709 35.8464 69.2788 35.627 68.8536 35.1883C68.4436 34.7496 68.2387 34.1142 68.2387 33.2821C68.2387 32.6921 68.3222 32.087 68.4892 31.4668C68.5651 31.2096 68.6258 30.9524 68.6714 30.6952C68.717 30.438 68.7397 30.1809 68.7397 29.9237C68.7397 29.258 68.5347 28.8269 68.1248 28.6302C67.73 28.4184 67.5326 28.1915 67.5326 27.9495C67.5326 27.7074 67.6313 27.4654 67.8287 27.2233C68.0413 26.9812 68.2994 26.7846 68.6031 26.6333C68.9068 26.4669 69.2104 26.3837 69.5141 26.3837C70.3796 26.3837 70.8123 27.0871 70.8123 28.4941C70.8123 28.9479 70.7744 29.3715 70.6985 29.7648C70.6377 30.143 70.5618 30.5061 70.4707 30.8541C70.41 31.0961 70.3568 31.3382 70.3113 31.5802C70.2809 31.8223 70.2657 32.0341 70.2657 32.2156C70.2657 32.972 70.6377 33.3502 71.3817 33.3502C72.0802 33.3502 72.7331 32.9796 73.3405 32.2383C73.9478 31.497 74.4489 30.4607 74.8437 29.1295L74.8209 28.6983C74.7905 27.9419 74.9196 27.367 75.2081 26.9737C75.5118 26.5803 75.9524 26.3837 76.5294 26.3837C77.0305 26.3837 77.281 26.5425 77.281 26.8602C77.281 26.9661 77.2582 27.1023 77.2127 27.2687C77.1823 27.4351 77.1292 27.6318 77.0532 27.8587C76.9014 28.4184 76.7723 29.016 76.6661 29.6514C76.5598 30.2716 76.5066 30.8465 76.5066 31.376C76.5066 31.966 76.5977 32.4577 76.7799 32.851C76.9621 33.2292 77.3038 33.4864 77.8048 33.6225C77.9415 33.6377 78.0478 33.683 78.1237 33.7587C78.2148 33.8192 78.2604 33.9553 78.2604 34.1671C78.2604 34.5302 78.1085 34.8857 77.8048 35.2337C77.5012 35.5816 77.0608 35.7556 76.4838 35.7556C75.3751 35.7556 74.8209 34.9765 74.8209 33.4183C74.8209 33.146 74.8437 32.7375 74.8892 32.1929L74.8437 32.1702C73.8871 34.621 72.4826 35.8464 70.6301 35.8464ZM80.1872 41.8145C79.5647 41.8145 79.0332 41.648 78.5929 41.3152C78.1374 40.9824 77.9096 40.5361 77.9096 39.9764C77.9096 39.5377 78.0463 39.1595 78.3196 38.8418C78.5777 38.5392 78.9042 38.3879 79.2989 38.3879C79.4812 38.3879 79.6102 38.4182 79.6861 38.4787C79.7621 38.5392 79.8228 38.6073 79.8683 38.6829C79.9898 38.8796 80.1265 39.046 80.2783 39.1821C80.4453 39.3334 80.6655 39.4091 80.9388 39.4091C81.3032 39.4091 81.6525 39.2805 81.9865 39.0233C82.3357 38.7661 82.6546 38.4711 82.9431 38.1383C83.2012 37.8509 83.5125 37.4348 83.8769 36.8902C84.2413 36.3607 84.6057 35.7556 84.9701 35.0748C84.6361 35.3623 84.3248 35.5665 84.0363 35.6875C83.7478 35.8237 83.4745 35.8918 83.2164 35.8918C82.8975 35.8918 82.5863 35.7783 82.2826 35.5514C81.9789 35.3093 81.7891 34.863 81.7132 34.2125C81.6676 33.7133 81.5765 33.1611 81.4399 32.556C81.3184 31.9509 81.159 31.3684 80.9616 30.8087C80.7794 30.2338 80.5516 29.7497 80.2783 29.3564C80.172 29.1748 80.0506 29.0387 79.9139 28.9479C79.7772 28.8571 79.5799 28.7966 79.3217 28.7664C79.1395 28.7512 79.018 28.6983 78.9573 28.6075C78.9118 28.5168 78.889 28.373 78.889 28.1764C78.889 27.6318 79.0408 27.193 79.3445 26.8602C79.6482 26.5274 80.0581 26.361 80.5744 26.361C81.1969 26.361 81.6449 26.603 81.9182 27.0871C82.1915 27.5561 82.4268 28.131 82.6242 28.8118C82.7002 29.0841 82.7761 29.4471 82.852 29.901C82.9431 30.3397 83.019 30.8162 83.0798 31.3306C83.1557 31.845 83.2088 32.3366 83.2392 32.8056C83.2544 33.1384 83.4442 33.3048 83.8086 33.3048C84.2945 33.3048 84.7576 33.1536 85.1979 32.851C85.6382 32.5484 85.9951 32.1551 86.2684 31.671C86.5569 31.1869 86.7011 30.6801 86.7011 30.1506C86.7011 29.848 86.6632 29.5757 86.5872 29.3337C86.5113 29.0916 86.3823 28.8798 86.2001 28.6983C86.0482 28.5168 85.9267 28.373 85.8356 28.2671C85.7445 28.1461 85.699 28.01 85.699 27.8587C85.699 27.6015 85.8205 27.3595 86.0634 27.1325C86.3063 26.9056 86.5948 26.7165 86.9289 26.5652C87.2781 26.4139 87.5818 26.3383 87.8399 26.3383C88.2954 26.3383 88.5991 26.5577 88.751 26.9964C88.9028 27.42 88.9408 27.8889 88.8648 28.4033C88.7737 29.1143 88.5915 29.9539 88.3182 30.9221C88.0449 31.8904 87.6881 32.9039 87.2477 33.9629C86.8226 35.0219 86.3291 36.043 85.7673 37.0264C85.2207 38.0248 84.6361 38.8947 84.0136 39.636C83.4821 40.2865 82.89 40.8084 82.237 41.2018C81.5841 41.6102 80.9009 41.8145 80.1872 41.8145ZM96.7407 35.7783C96.4523 35.7783 96.2549 35.6951 96.1486 35.5287C96.0423 35.3623 95.9891 35.1807 95.9891 34.9841C95.9891 34.0461 96.0802 32.972 96.2625 31.7618C96.4598 30.5515 96.6952 29.3488 96.9685 28.1537C97.2114 27.1401 97.4772 26.1946 97.7657 25.3171C98.0693 24.4397 98.3351 23.7211 98.5628 23.1614C98.8969 22.3747 99.2765 21.7771 99.7016 21.3687C100.142 20.9451 100.651 20.7333 101.228 20.7333C101.653 20.7333 102.032 20.877 102.366 21.1645C102.7 21.4368 102.898 21.936 102.959 22.6621C103.05 23.5396 103.156 24.4246 103.277 25.3171C103.399 26.2097 103.536 27.0266 103.687 27.7679C103.839 28.4941 103.999 29.0538 104.166 29.4471C104.302 29.7951 104.5 29.9691 104.758 29.9691C105.046 29.9691 105.297 29.7875 105.509 29.4245C105.707 29.0916 105.919 28.6378 106.147 28.0629C106.375 27.488 106.595 26.8829 106.808 26.2475C107.035 25.597 107.233 25.007 107.4 24.4775C107.597 23.9027 107.817 23.3278 108.06 22.7529C108.319 22.1629 108.645 21.6788 109.04 21.3006C109.435 20.9073 109.928 20.7106 110.52 20.7106C111.067 20.7106 111.454 20.8997 111.682 21.2779C111.925 21.641 112.046 22.2234 112.046 23.0252C112.046 23.6455 112.023 24.296 111.978 24.9768C111.963 25.3701 111.94 25.7786 111.91 26.2021C111.894 26.6106 111.887 27.0342 111.887 27.4729C111.887 28.1537 111.917 28.8723 111.978 29.6287C112.054 30.3851 112.19 31.0961 112.388 31.7618C112.6 32.4274 112.912 32.9871 113.322 33.441C113.443 33.5469 113.549 33.6679 113.64 33.8041C113.747 33.9402 113.8 34.0915 113.8 34.2579C113.8 34.6361 113.595 34.9841 113.185 35.3018C112.79 35.6043 112.335 35.7556 111.818 35.7556C111.348 35.7556 110.998 35.6043 110.771 35.3018C110.543 34.9992 110.361 34.5907 110.224 34.0764C110.072 33.441 109.966 32.7602 109.905 32.0341C109.844 31.3079 109.814 30.6045 109.814 29.9237C109.814 28.8345 109.852 27.836 109.928 26.9283C110.019 26.0055 110.065 25.3247 110.065 24.886C110.065 24.6439 110.042 24.47 109.996 24.3641C109.951 24.243 109.837 24.1825 109.655 24.1825C109.442 24.1825 109.26 24.2809 109.108 24.4775C108.971 24.6591 108.858 24.9162 108.766 25.2491C108.569 25.8845 108.349 26.5652 108.106 27.2914C107.863 28.0175 107.605 28.7286 107.332 29.4245C107.073 30.1204 106.793 30.7406 106.489 31.2852C106.14 31.9206 105.76 32.3518 105.35 32.5787C104.955 32.7905 104.553 32.8964 104.143 32.8964C103.505 32.8964 103.019 32.6997 102.685 32.3064C102.366 31.8979 102.131 31.4516 101.979 30.9675C101.782 30.317 101.6 29.4698 101.433 28.426C101.266 27.367 101.144 26.1795 101.068 24.8633C101.038 24.3036 100.856 24.0237 100.522 24.0237C100.157 24.0237 99.8686 24.296 99.6561 24.8406C99.4739 25.3852 99.2992 26.0282 99.1322 26.7695C98.9652 27.4956 98.8285 28.2596 98.7223 29.0614C98.6312 29.848 98.5856 30.6271 98.5856 31.3987C98.5856 32.0492 98.6084 32.6165 98.6539 33.1006C98.7147 33.5847 98.745 34.0386 98.745 34.4621C98.745 34.7647 98.6236 35.0143 98.3806 35.211C98.1529 35.4077 97.8795 35.5514 97.5607 35.6421C97.2418 35.7329 96.9685 35.7783 96.7407 35.7783ZM118.912 35.8464C117.758 35.8464 116.855 35.5211 116.202 34.8706C115.564 34.205 115.245 33.2821 115.245 32.1021C115.245 31.028 115.481 30.0523 115.951 29.1748C116.422 28.2974 117.052 27.6015 117.842 27.0871C118.647 26.5577 119.527 26.2929 120.484 26.2929C121.395 26.2929 122.124 26.5198 122.67 26.9737C123.217 27.4124 123.49 28.0024 123.49 28.7437C123.49 29.3337 123.308 29.8783 122.944 30.3775C122.579 30.8768 122.093 31.2777 121.486 31.5802C120.879 31.8677 120.203 32.0114 119.459 32.0114C118.548 32.0114 117.804 31.8071 117.227 31.3987C117.242 32.0946 117.477 32.6543 117.933 33.0779C118.404 33.5015 119.003 33.7133 119.732 33.7133C120.173 33.7133 120.621 33.6377 121.076 33.4864C121.547 33.32 121.949 33.1006 122.283 32.8283C122.496 32.6468 122.693 32.556 122.875 32.556C123.027 32.556 123.149 32.6089 123.24 32.7148C123.346 32.8056 123.399 32.9266 123.399 33.0779C123.399 33.4107 123.111 33.8495 122.534 34.3941C121.516 35.3623 120.309 35.8464 118.912 35.8464ZM119.254 30.5137C119.801 30.5137 120.256 30.4002 120.621 30.1733C120.985 29.9464 121.167 29.6589 121.167 29.311C121.167 29.0236 121.046 28.8042 120.803 28.6529C120.56 28.4865 120.226 28.4033 119.801 28.4033C119.239 28.4033 118.745 28.5546 118.32 28.8571C117.91 29.1446 117.614 29.553 117.432 30.0825C117.644 30.2187 117.918 30.3246 118.252 30.4002C118.586 30.4759 118.92 30.5137 119.254 30.5137ZM134.197 35.8464C133.286 35.8464 132.55 35.5665 131.988 35.0068C131.441 34.4319 131.168 33.615 131.168 32.556C131.168 31.7996 131.312 31.0507 131.601 30.3095C131.904 29.553 132.337 28.8723 132.899 28.2671C133.461 27.662 134.137 27.1779 134.926 26.8148C135.716 26.4518 136.604 26.2702 137.591 26.2702C138.502 26.2702 139.276 26.4291 139.914 26.7468C140.567 27.0493 140.893 27.4653 140.893 27.9948C140.893 28.131 140.878 28.3125 140.848 28.5395C140.817 28.7512 140.779 28.9252 140.734 29.0614C140.688 29.1824 140.62 29.2959 140.529 29.4018C140.453 29.4925 140.347 29.5379 140.21 29.5379C140.149 29.5379 140.035 29.5152 139.868 29.4698C139.808 29.7875 139.762 30.0977 139.732 30.4002C139.701 30.7028 139.686 31.0053 139.686 31.3079C139.686 31.8828 139.77 32.3971 139.937 32.851C140.119 33.2897 140.468 33.562 140.984 33.6679C141.121 33.6982 141.227 33.7436 141.303 33.8041C141.394 33.8646 141.44 33.9932 141.44 34.1898C141.44 34.3562 141.394 34.568 141.303 34.8252C141.227 35.0824 141.068 35.3169 140.825 35.5287C140.597 35.7254 140.263 35.8237 139.823 35.8237C139.231 35.8237 138.775 35.6119 138.456 35.1883C138.137 34.7496 137.978 34.1293 137.978 33.3275C137.568 34.0688 137.044 34.6739 136.407 35.1429C135.784 35.6119 135.048 35.8464 134.197 35.8464ZM134.926 33.4864C135.533 33.4864 136.065 33.2973 136.52 32.9191C136.991 32.5409 137.356 32.0643 137.614 31.4895C137.781 31.1264 137.91 30.733 138.001 30.3095C138.092 29.8707 138.153 29.4396 138.183 29.016C137.925 28.895 137.629 28.7966 137.295 28.721C136.961 28.6454 136.612 28.6075 136.247 28.6075C135.321 28.6075 134.554 28.8798 133.947 29.4245C133.355 29.9691 133.058 30.6498 133.058 31.4668C133.058 32.0719 133.225 32.5636 133.56 32.9418C133.894 33.3048 134.349 33.4864 134.926 33.4864ZM154.523 35.8464C153.445 35.8464 152.496 35.6043 151.676 35.1202C150.872 34.6361 150.249 33.9478 149.809 33.0552C149.368 32.1627 149.148 31.1037 149.148 29.8783C149.148 28.7134 149.338 27.5939 149.718 26.5198C150.097 25.4457 150.644 24.4851 151.357 23.6379C152.071 22.7907 152.929 22.1175 153.931 21.6183C154.933 21.1191 156.064 20.8695 157.325 20.8695C158.266 20.8695 159.04 21.0132 159.648 21.3006C160.255 21.588 160.559 22.0116 160.559 22.5714C160.559 22.8437 160.483 23.116 160.331 23.3883C160.194 23.6455 160.012 23.8648 159.784 24.0464C159.557 24.2279 159.321 24.3187 159.078 24.3187C158.927 24.3187 158.805 24.2809 158.714 24.2052C158.304 23.9329 157.902 23.7362 157.507 23.6152C157.112 23.4791 156.657 23.411 156.14 23.411C155.062 23.411 154.151 23.6606 153.407 24.1598C152.663 24.6439 152.094 25.2869 151.699 26.0887C151.319 26.8905 151.13 27.7603 151.13 28.6983C151.13 29.606 151.304 30.4078 151.653 31.1037C152.003 31.7996 152.489 32.3442 153.111 32.7375C153.734 33.1309 154.463 33.3275 155.298 33.3275C155.966 33.3275 156.611 33.1989 157.234 32.9418C157.871 32.6695 158.433 32.2988 158.919 31.8298C159.132 31.6332 159.344 31.5348 159.557 31.5348C159.739 31.5348 159.868 31.6105 159.944 31.7618C160.02 31.913 160.058 32.0643 160.058 32.2156C160.058 32.4728 159.982 32.7678 159.83 33.1006C159.678 33.4183 159.443 33.736 159.124 34.0537C158.562 34.6134 157.871 35.0521 157.051 35.3698C156.231 35.6875 155.389 35.8464 154.523 35.8464ZM165.087 35.8464C164.04 35.8464 163.197 35.5665 162.559 35.0068C161.937 34.4319 161.626 33.5923 161.626 32.4879C161.626 31.9736 161.694 31.4743 161.831 30.9902C161.982 30.5061 162.18 30.0523 162.423 29.6287C162.18 29.78 161.998 29.8556 161.876 29.8556C161.694 29.8556 161.565 29.7573 161.489 29.5606C161.428 29.3488 161.398 29.1446 161.398 28.9479C161.398 28.6 161.466 28.3277 161.603 28.131C161.755 27.9192 161.899 27.7604 162.035 27.6545C162.354 27.3821 162.855 27.0871 163.539 26.7695C164.222 26.4366 165.042 26.2702 165.999 26.2702C167.304 26.2702 168.314 26.6333 169.028 27.3595C169.757 28.0856 170.121 29.0992 170.121 30.4002C170.121 31.4138 169.908 32.3366 169.483 33.1687C169.058 33.9856 168.466 34.6361 167.707 35.1202C166.963 35.6043 166.09 35.8464 165.087 35.8464ZM165.794 33.5318C166.553 33.5318 167.19 33.2973 167.707 32.8283C168.238 32.3442 168.504 31.7088 168.504 30.9221C168.504 30.1052 168.238 29.5228 167.707 29.1748C167.175 28.8269 166.56 28.6529 165.862 28.6529C165.543 28.6529 165.255 28.6832 164.996 28.7437C164.738 28.8042 164.495 28.8798 164.268 28.9706C164.055 29.2732 163.865 29.6136 163.698 29.9918C163.531 30.37 163.448 30.786 163.448 31.2398C163.448 31.9962 163.675 32.5711 164.131 32.9645C164.586 33.3427 165.141 33.5318 165.794 33.5318ZM173.22 39.9083C172.932 39.9083 172.711 39.8327 172.56 39.6814C172.408 39.5452 172.339 39.288 172.355 38.9098C172.355 38.6829 172.37 38.2745 172.4 37.6845C172.446 37.1096 172.499 36.4212 172.56 35.6195C172.635 34.8328 172.711 34.0083 172.787 33.146C172.878 32.2837 172.962 31.4516 173.038 30.6498C173.114 29.848 173.182 29.1597 173.243 28.5848C173.091 28.6 172.947 28.6151 172.81 28.6302C172.673 28.6302 172.537 28.6453 172.4 28.6756C172.248 28.7059 172.134 28.721 172.058 28.721C171.876 28.721 171.755 28.6151 171.694 28.4033C171.633 28.1764 171.603 27.9646 171.603 27.7679C171.603 27.541 171.633 27.3519 171.694 27.2006C171.77 27.0493 171.922 26.9283 172.15 26.8375C172.286 26.777 172.461 26.7241 172.673 26.6787C172.901 26.6333 173.136 26.5955 173.379 26.5652C173.455 25.6727 173.569 24.8255 173.721 24.0237C173.888 23.2219 174.139 22.5411 174.473 21.9814C174.822 21.4065 175.293 20.9527 175.885 20.6198C176.492 20.287 177.107 20.1206 177.73 20.1206C178.185 20.1206 178.61 20.2114 179.005 20.3929C179.415 20.5593 179.742 20.8014 179.984 21.1191C180.243 21.4216 180.372 21.7696 180.372 22.1629C180.372 22.4503 180.296 22.6848 180.144 22.8664C180.007 23.0479 179.848 23.1387 179.666 23.1387C179.59 23.1387 179.506 23.1236 179.415 23.0933C179.324 23.063 179.233 23.0328 179.142 23.0025C178.975 22.9269 178.762 22.8664 178.504 22.821C178.261 22.7605 177.995 22.7302 177.707 22.7302C177.115 22.7302 176.644 22.8891 176.295 23.2068C175.961 23.5245 175.703 23.9632 175.52 24.5229C175.353 25.0675 175.217 25.7029 175.11 26.4291C175.429 26.3988 175.771 26.3686 176.135 26.3383C176.5 26.308 176.796 26.2929 177.024 26.2929C177.388 26.2929 177.669 26.3534 177.866 26.4745C178.079 26.5803 178.185 26.7921 178.185 27.1098C178.185 27.3065 178.147 27.541 178.071 27.8133C178.011 28.0705 177.912 28.305 177.775 28.5168C177.639 28.7134 177.479 28.8118 177.297 28.8118C177.221 28.8118 177.092 28.7891 176.91 28.7437C176.712 28.7134 176.454 28.6756 176.135 28.6302C175.816 28.5848 175.414 28.5546 174.928 28.5395C174.867 29.19 174.814 29.9161 174.769 30.7179C174.738 31.5046 174.723 32.3366 174.723 33.2141C174.723 34.1671 174.754 34.9916 174.814 35.6875C174.875 36.3834 174.936 36.9507 174.997 37.3895C175.027 37.5861 175.05 37.7601 175.065 37.9114C175.08 38.0627 175.088 38.1837 175.088 38.2745C175.088 38.7132 174.981 39.046 174.769 39.2729C174.556 39.515 174.306 39.6814 174.017 39.7721C173.729 39.8629 173.463 39.9083 173.22 39.9083ZM180.182 39.9083C179.893 39.9083 179.673 39.8327 179.521 39.6814C179.37 39.5452 179.301 39.288 179.316 38.9098C179.316 38.6829 179.332 38.2745 179.362 37.6845C179.407 37.1096 179.461 36.4212 179.521 35.6195C179.597 34.8328 179.673 34.0083 179.749 33.146C179.84 32.2837 179.924 31.4516 180 30.6498C180.076 29.848 180.144 29.1597 180.205 28.5848C180.053 28.6 179.909 28.6151 179.772 28.6302C179.635 28.6302 179.499 28.6453 179.362 28.6756C179.21 28.7059 179.096 28.721 179.02 28.721C178.838 28.721 178.717 28.6151 178.656 28.4033C178.595 28.1764 178.565 27.9646 178.565 27.7679C178.565 27.541 178.595 27.3519 178.656 27.2006C178.732 27.0493 178.884 26.9283 179.111 26.8375C179.248 26.777 179.423 26.7241 179.635 26.6787C179.863 26.6333 180.098 26.5955 180.341 26.5652C180.417 25.6727 180.531 24.8255 180.683 24.0237C180.85 23.2219 181.1 22.5411 181.435 21.9814C181.784 21.4065 182.254 20.9527 182.847 20.6198C183.454 20.287 184.069 20.1206 184.691 20.1206C185.147 20.1206 185.572 20.2114 185.967 20.3929C186.377 20.5593 186.703 20.8014 186.946 21.1191C187.204 21.4216 187.333 21.7696 187.333 22.1629C187.333 22.4503 187.258 22.6848 187.106 22.8664C186.969 23.0479 186.81 23.1387 186.627 23.1387C186.552 23.1387 186.468 23.1236 186.377 23.0933C186.286 23.063 186.195 23.0328 186.104 23.0025C185.937 22.9269 185.724 22.8664 185.466 22.821C185.223 22.7605 184.957 22.7302 184.669 22.7302C184.077 22.7302 183.606 22.8891 183.257 23.2068C182.923 23.5245 182.664 23.9632 182.482 24.5229C182.315 25.0675 182.179 25.7029 182.072 26.4291C182.391 26.3988 182.733 26.3686 183.097 26.3383C183.462 26.308 183.758 26.2929 183.985 26.2929C184.35 26.2929 184.631 26.3534 184.828 26.4745C185.041 26.5803 185.147 26.7921 185.147 27.1098C185.147 27.3065 185.109 27.541 185.033 27.8133C184.972 28.0705 184.874 28.305 184.737 28.5168C184.6 28.7134 184.441 28.8118 184.259 28.8118C184.183 28.8118 184.054 28.7891 183.872 28.7437C183.674 28.7134 183.416 28.6756 183.097 28.6302C182.778 28.5848 182.376 28.5546 181.89 28.5395C181.829 29.19 181.776 29.9161 181.731 30.7179C181.7 31.5046 181.685 32.3366 181.685 33.2141C181.685 34.1671 181.715 34.9916 181.776 35.6875C181.837 36.3834 181.898 36.9507 181.958 37.3895C181.989 37.5861 182.011 37.7601 182.027 37.9114C182.042 38.0627 182.049 38.1837 182.049 38.2745C182.049 38.7132 181.943 39.046 181.731 39.2729C181.518 39.515 181.268 39.6814 180.979 39.7721C180.691 39.8629 180.425 39.9083 180.182 39.9083ZM189.086 35.8464C187.932 35.8464 187.029 35.5211 186.376 34.8706C185.738 34.205 185.42 33.2821 185.42 32.1021C185.42 31.028 185.655 30.0523 186.126 29.1748C186.596 28.2974 187.226 27.6015 188.016 27.0871C188.821 26.5577 189.701 26.2929 190.658 26.2929C191.569 26.2929 192.298 26.5198 192.845 26.9737C193.391 27.4124 193.664 28.0024 193.664 28.7437C193.664 29.3337 193.482 29.8783 193.118 30.3775C192.753 30.8768 192.268 31.2777 191.66 31.5802C191.053 31.8677 190.377 32.0114 189.633 32.0114C188.722 32.0114 187.978 31.8071 187.401 31.3987C187.416 32.0946 187.652 32.6543 188.107 33.0779C188.578 33.5015 189.178 33.7133 189.906 33.7133C190.347 33.7133 190.795 33.6377 191.25 33.4864C191.721 33.32 192.123 33.1006 192.457 32.8283C192.67 32.6468 192.867 32.556 193.049 32.556C193.201 32.556 193.323 32.6089 193.414 32.7148C193.52 32.8056 193.573 32.9266 193.573 33.0779C193.573 33.4107 193.285 33.8495 192.708 34.3941C191.691 35.3623 190.483 35.8464 189.086 35.8464ZM189.428 30.5137C189.975 30.5137 190.43 30.4002 190.795 30.1733C191.159 29.9464 191.341 29.6589 191.341 29.311C191.341 29.0236 191.22 28.8042 190.977 28.6529C190.734 28.4865 190.4 28.4033 189.975 28.4033C189.413 28.4033 188.919 28.5546 188.494 28.8571C188.084 29.1446 187.788 29.553 187.606 30.0825C187.819 30.2187 188.092 30.3246 188.426 30.4002C188.76 30.4759 189.094 30.5137 189.428 30.5137ZM198.895 35.8464C197.741 35.8464 196.838 35.5211 196.185 34.8706C195.547 34.205 195.228 33.2821 195.228 32.1021C195.228 31.028 195.464 30.0523 195.934 29.1748C196.405 28.2974 197.035 27.6015 197.825 27.0871C198.63 26.5577 199.51 26.2929 200.467 26.2929C201.378 26.2929 202.107 26.5198 202.653 26.9737C203.2 27.4124 203.473 28.0024 203.473 28.7437C203.473 29.3337 203.291 29.8783 202.927 30.3775C202.562 30.8768 202.076 31.2777 201.469 31.5802C200.862 31.8677 200.186 32.0114 199.442 32.0114C198.531 32.0114 197.787 31.8071 197.21 31.3987C197.225 32.0946 197.46 32.6543 197.916 33.0779C198.387 33.5015 198.986 33.7133 199.715 33.7133C200.156 33.7133 200.603 33.6377 201.059 33.4864C201.53 33.32 201.932 33.1006 202.266 32.8283C202.479 32.6468 202.676 32.556 202.858 32.556C203.01 32.556 203.132 32.6089 203.223 32.7148C203.329 32.8056 203.382 32.9266 203.382 33.0779C203.382 33.4107 203.094 33.8495 202.517 34.3941C201.499 35.3623 200.292 35.8464 198.895 35.8464ZM199.237 30.5137C199.784 30.5137 200.239 30.4002 200.603 30.1733C200.968 29.9464 201.15 29.6589 201.15 29.311C201.15 29.0236 201.029 28.8042 200.786 28.6529C200.543 28.4865 200.209 28.4033 199.784 28.4033C199.222 28.4033 198.728 28.5546 198.303 28.8571C197.893 29.1446 197.597 29.553 197.415 30.0825C197.627 30.2187 197.901 30.3246 198.235 30.4002C198.569 30.4759 198.903 30.5137 199.237 30.5137Z" fill="white"/>
</svg>
