<svg width="227" height="60" viewBox="0 0 227 60" fill="none" xmlns="http://www.w3.org/2000/svg">
<path d="M211.816 0H15.1839C6.79808 0 0 6.88793 0 15.3846V44.6154C0 53.1121 6.79808 60 15.1839 60H211.816C220.202 60 227 53.1121 227 44.6154V15.3846C227 6.88793 220.202 0 211.816 0Z" fill="#2764FF"/>
<path d="M78.9254 31.8928C78.7591 32.8047 78.0994 37.0554 77.905 38.257C77.8906 38.3425 77.8572 38.3757 77.7623 38.3757H74.222C73.8613 38.3757 73.6002 38.0623 73.6477 37.7156L76.4291 20.0526C76.4997 19.5966 76.9082 19.25 77.3781 19.25C84.6064 19.25 85.2138 19.0743 87.0602 19.7914C89.9125 20.898 90.1736 23.5672 89.1487 26.4548C88.1276 29.4279 85.7073 30.7055 82.4989 30.7435C80.4392 30.7767 79.201 30.411 78.9254 31.8928ZM90.5866 25.0585C90.5009 24.9967 90.4675 24.973 90.4439 25.1202C90.349 25.6616 90.2017 26.1888 90.0264 26.716C88.1329 32.1208 82.8838 31.6506 80.3208 31.6506C80.0315 31.6506 79.841 31.8073 79.803 32.097C78.731 38.7652 78.5169 40.1567 78.5169 40.1567C78.4699 40.494 78.6832 40.7694 79.0203 40.7694H82.0343C82.442 40.7694 82.7791 40.4702 82.8595 40.0617C82.8929 39.8053 82.8079 40.3515 83.5436 35.7256C83.7615 34.6807 84.2223 34.79 84.9337 34.79C88.3037 34.79 90.9328 33.4221 91.7163 29.4564C92.0246 27.8036 91.9342 26.0653 90.5866 25.0585Z" fill="white"/>
<path d="M102.002 34.6156H104.336L104.935 30.988H106.893C109.443 30.988 111.169 29.4583 111.53 27.2183C111.891 24.9893 110.699 23.4268 108.192 23.4268H103.835L102.002 34.6156ZM105.248 29.0922L105.862 25.3608H107.437C108.785 25.3608 109.303 26.0984 109.125 27.2183C108.947 28.3274 108.176 29.0922 106.823 29.0922H105.248ZM113.908 34.7741C115.132 34.7741 116.016 34.2331 116.544 33.4519H116.609L116.415 34.6156H118.593L119.527 28.9556C119.85 26.9561 118.313 26.1148 116.48 26.1148C114.49 26.1148 113.018 27.0763 112.457 28.606L114.549 28.7808C114.797 28.2235 115.385 27.8138 116.204 27.8138C116.981 27.8138 117.348 28.2126 117.24 28.901V28.9338C117.143 29.4692 116.555 29.5402 115.105 29.6878C113.439 29.8407 111.88 30.4034 111.568 32.2718C111.298 33.9272 112.333 34.7741 113.908 34.7741ZM114.829 33.1678C114.113 33.1678 113.676 32.8291 113.773 32.1954C113.875 31.5398 114.474 31.2175 115.304 31.1027C115.806 31.0208 116.652 30.9115 116.949 30.7258L116.809 31.6163C116.658 32.4958 115.838 33.1678 114.829 33.1678ZM120.99 37.7625C122.689 37.7625 123.745 36.8883 124.441 35.5225L129.18 26.224H126.662L123.918 32.3975H123.832L123.13 26.224H120.801L122.355 34.8396L122.15 35.1947C121.702 35.976 121.157 36.0361 120.386 35.7848L119.577 37.5221C119.89 37.6641 120.403 37.7625 120.99 37.7625ZM129.019 34.6156H131.353L131.952 30.988H133.909C136.46 30.988 138.185 29.4583 138.547 27.2183C138.908 24.9893 137.716 23.4268 135.208 23.4268H130.852L129.019 34.6156ZM132.265 29.0922L132.879 25.3608H134.454C135.802 25.3608 136.32 26.0984 136.142 27.2183C135.964 28.3274 135.193 29.0922 133.839 29.0922H132.265ZM140.924 34.7741C142.148 34.7741 143.033 34.2331 143.561 33.4519H143.626L143.431 34.6156H145.61L146.543 28.9556C146.867 26.9561 145.329 26.1148 143.497 26.1148C141.507 26.1148 140.035 27.0763 139.474 28.606L141.566 28.7808C141.814 28.2235 142.402 27.8138 143.221 27.8138C143.998 27.8138 144.364 28.2126 144.257 28.901V28.9338C144.159 29.4692 143.572 29.5402 142.122 29.6878C140.455 29.8407 138.897 30.4034 138.584 32.2718C138.314 33.9272 139.35 34.7741 140.924 34.7741ZM141.846 33.1678C141.129 33.1678 140.692 32.8291 140.789 32.1954C140.892 31.5398 141.491 31.2175 142.321 31.1027C142.822 31.0208 143.669 30.9115 143.966 30.7258L143.825 31.6163C143.674 32.4958 142.854 33.1678 141.846 33.1678ZM151.522 23.4268H149.226L147.392 34.6156H149.689L151.522 23.4268Z" fill="white"/>
</svg>
