<svg width="118" height="118" viewBox="0 0 118 118" fill="none" xmlns="http://www.w3.org/2000/svg">
<path d="M86.4319 108.964L88.4067 107.879L87.0949 106.047L47.2199 50.3591L43.5938 45.295V51.5234V80.9766H41.75V41.9219H44.523L87.3278 106.171L88.4253 107.819L90.0838 106.738C105.663 96.5893 116 79.0427 116 59C116 27.5595 90.4405 2 59 2C27.5595 2 2 27.5595 2 59C2 90.4405 27.5595 116 59 116C68.9742 116 78.3275 113.417 86.4319 108.964ZM73.5469 66.3889V41.9219H75.9922V70.0731L73.5469 66.3889Z" fill="black" stroke="white" stroke-width="4"/>
</svg>
