<svg width="108" height="108" viewBox="0 0 108 108" fill="none" xmlns="http://www.w3.org/2000/svg">
<mask id="path-1-outside-1" maskUnits="userSpaceOnUse" x="0.904297" y="0.682129" width="107" height="107" fill="black">
<rect fill="white" x="0.904297" y="0.682129" width="107" height="107"/>
<path fill-rule="evenodd" clip-rule="evenodd" d="M53.271 1.88001C53.082 1.99001 52.289 3.12801 51.508 4.40901C49.548 7.62601 49.526 7.62801 46.893 4.85701C45.18 3.05501 44.766 2.72501 44.214 2.72901C43.855 2.73101 43.402 2.85301 43.206 3.00001C43.011 3.14701 42.458 4.31701 41.978 5.60001C40.879 8.53901 40.826 8.634 40.217 8.751C39.842 8.822 39.12 8.42001 37.389 7.17701C36.111 6.25801 34.857 5.50701 34.603 5.50701C33.549 5.50701 33.252 6.08301 32.75 9.10001C32.112 12.936 32.134 12.923 28.676 11.352C27.28 10.719 25.956 10.2 25.733 10.2C25.51 10.2 25.087 10.44 24.794 10.733C24.262 11.266 24.261 11.268 24.406 14.201L24.552 17.137L23.997 17.434C23.505 17.697 23.166 17.665 20.988 17.15C18.145 16.479 17.545 16.497 16.969 17.272L16.548 17.838L17.113 20.259C17.423 21.59 17.722 22.872 17.778 23.107C17.833 23.341 17.738 23.716 17.566 23.939C17.282 24.306 16.98 24.339 14.349 24.299C9.89596 24.229 9.64296 24.611 11.483 28.627C12.068 29.902 12.547 31.06 12.547 31.199C12.547 31.933 11.962 32.2 9.44896 32.61C8.04296 32.839 6.82096 33.027 6.73296 33.027C6.64496 33.027 6.38096 33.219 6.14696 33.453C5.38196 34.218 5.59896 34.936 7.33396 37.385C9.49496 40.435 9.49096 40.446 5.92096 41.812C1.86096 43.365 1.77896 43.748 4.86996 46.68C7.74896 49.41 7.75196 49.37 4.49296 51.419C2.02396 52.97 1.98596 53.007 1.92296 53.848C1.84696 54.871 1.86496 54.889 4.81296 56.69C7.72796 58.47 7.72796 58.524 4.86696 61.231C1.78996 64.141 1.88496 64.566 5.94796 66.099C9.49796 67.438 9.50296 67.454 7.33796 70.504C6.11096 72.233 5.71996 72.953 5.71996 73.487C5.71996 74.486 6.23996 74.741 9.34696 75.263C11.964 75.704 12.547 75.963 12.547 76.685C12.547 76.833 12.067 78.001 11.48 79.279C9.65396 83.256 9.86196 83.587 14.184 83.587C18.209 83.587 18.102 83.464 17.235 87.094C16.581 89.83 16.571 90.354 17.163 90.945C17.616 91.399 18.47 91.348 21.141 90.709C23.181 90.222 23.539 90.188 24.012 90.441L24.552 90.73L24.406 93.665C24.261 96.599 24.262 96.601 24.794 97.134C25.087 97.427 25.516 97.667 25.746 97.667C25.976 97.667 27.3 97.151 28.689 96.52C32.136 94.955 32.114 94.942 32.75 98.766C33.254 101.797 33.548 102.36 34.624 102.36C34.891 102.36 36.118 101.64 37.352 100.76C39.519 99.214 40.081 98.972 40.658 99.339C40.807 99.433 41.385 100.703 41.942 102.161C42.761 104.305 43.061 104.863 43.517 105.081C44.385 105.497 44.922 105.163 46.962 102.941C49.425 100.258 49.526 100.271 51.537 103.53C53.758 107.128 54.333 107.12 56.61 103.457C58.572 100.301 58.549 100.303 61.201 103.073C62.962 104.911 63.337 105.204 63.931 105.204C64.31 105.204 64.763 105.062 64.936 104.888C65.11 104.714 65.686 103.429 66.216 102.033C66.746 100.636 67.295 99.42 67.437 99.33C67.998 98.973 68.579 99.224 70.743 100.76C72.017 101.665 73.216 102.36 73.501 102.36C74.559 102.36 74.941 101.609 75.381 98.657C75.757 96.14 75.833 95.899 76.328 95.648C76.815 95.401 77.107 95.484 79.391 96.521C80.78 97.151 82.104 97.667 82.334 97.667C82.564 97.667 83 97.42 83.301 97.118L83.85 96.57L83.699 93.755C83.555 91.067 83.568 90.923 83.997 90.535C84.438 90.136 84.483 90.138 86.949 90.701C89.935 91.383 90.492 91.401 91.053 90.84C91.601 90.292 91.595 90.172 90.845 87.009C90.004 83.461 89.891 83.587 93.933 83.587C96.688 83.587 96.995 83.548 97.346 83.161C97.932 82.513 97.793 81.771 96.614 79.258C96.019 77.992 95.536 76.84 95.54 76.698C95.56 75.951 96.147 75.696 98.86 75.255C100.52 74.986 101.762 74.674 101.987 74.471C102.741 73.79 102.464 72.904 100.743 70.491C98.586 67.467 98.595 67.438 102.049 66.165C106.185 64.641 106.303 64.133 103.208 61.192C100.341 58.468 100.34 58.483 103.48 56.555C107.276 54.225 107.282 53.7 103.547 51.382C100.335 49.389 100.337 49.417 103.216 46.683C106.304 43.749 106.22 43.365 102.159 41.812C98.575 40.441 98.564 40.407 100.742 37.418C102.039 35.638 102.36 35.047 102.36 34.437C102.36 33.371 101.882 33.132 98.738 32.624C96.111 32.2 95.533 31.942 95.533 31.195C95.533 31.053 96.013 29.91 96.6 28.653C97.749 26.192 97.91 25.207 97.26 24.618C96.911 24.302 96.443 24.257 93.939 24.298C91.319 24.342 90.984 24.305 90.621 23.94C90.224 23.541 90.228 23.485 90.848 20.898C91.608 17.728 91.611 17.651 90.986 17.064C90.352 16.468 89.956 16.478 87.045 17.163C84.924 17.663 84.573 17.696 84.091 17.438L83.544 17.145L83.695 14.219L83.847 11.294L83.3 10.747C82.999 10.446 82.572 10.2 82.35 10.2C82.129 10.2 80.812 10.723 79.424 11.361C77.106 12.428 76.857 12.499 76.356 12.237C75.856 11.975 75.773 11.717 75.346 9.11001C74.853 6.09401 74.548 5.50701 73.477 5.50701C73.223 5.50701 71.964 6.262 70.679 7.185C68.569 8.701 68.286 8.844 67.76 8.661C67.325 8.509 67.072 8.178 66.763 7.355C66.534 6.749 66.096 5.58101 65.788 4.76001C65.166 3.10401 64.819 2.73301 63.887 2.73301C63.367 2.73301 62.896 3.107 61.208 4.86C58.555 7.616 58.545 7.61501 56.594 4.41501C55.814 3.13601 54.999 1.99401 54.782 1.87801C54.294 1.61601 53.72 1.61701 53.271 1.88001ZM55.689 11.515C58 13.16 56.771 17.027 53.937 17.027C51.187 17.027 49.802 13.714 51.766 11.833C52.874 10.771 54.463 10.642 55.689 11.515ZM52.783 21.729C54.298 22.305 54.92 21.959 58.379 18.625L60.978 16.119L62.078 16.265C65.528 16.723 72.39 19.737 76.333 22.526C79.956 25.09 84.771 30.312 86.823 33.903L87.262 34.672L85.318 39.052C84.248 41.461 83.373 43.685 83.373 43.996C83.373 44.713 83.843 45.847 84.296 46.222C84.487 46.381 86.302 47.255 88.329 48.164L92.013 49.818L92.158 50.755C92.345 51.976 92.37 54.975 92.2 55.827L92.067 56.493H89.964C87.525 56.493 87.713 56.275 87.581 59.267C87.485 61.436 86.961 62.635 85.769 63.411C83.827 64.678 80.62 64.448 79.26 62.945C79.051 62.714 78.645 61.553 78.357 60.364C77.516 56.891 76.386 54.941 74.116 53.044C73.399 52.445 72.813 51.886 72.813 51.801C72.813 51.717 73.601 51.053 74.565 50.328C78.075 47.682 80.093 44.602 80.315 41.551C80.738 35.732 76.102 30.308 69.206 28.55C67.571 28.133 66.873 28.12 46.646 28.12C35.166 28.12 25.773 28.045 25.773 27.954C25.773 27.739 28.324 25.263 29.827 24.021C33.954 20.609 39.315 17.924 44.867 16.49L46.787 15.993L49.515 18.759C51.016 20.28 52.487 21.616 52.783 21.729ZM18.432 39.526C19.689 40.349 20.204 42.417 19.462 43.66C18.314 45.584 15.406 45.665 14.257 43.805C12.586 41.103 15.804 37.804 18.432 39.526ZM92.482 39.631C95.77 41.636 93.222 46.568 89.702 45.011C87.352 43.971 87.277 40.759 89.575 39.587C90.534 39.098 91.636 39.115 92.482 39.631ZM28.12 51.907V64.173H22.698H17.276L16.846 62.307C16 58.632 15.644 54.83 15.857 51.716L16.006 49.528L19.734 47.856C22.073 46.808 23.577 46.009 23.771 45.712C24.619 44.419 24.538 43.495 23.348 40.867L22.792 39.64H25.456H28.12V51.907ZM59.34 40.174C61.662 40.778 62.889 42.007 62.892 43.73C62.894 44.995 62.267 45.789 60.712 46.491C59.611 46.989 59.436 47.001 52.493 47.069L45.4 47.137V43.495V39.853H51.755C56.719 39.853 58.38 39.923 59.34 40.174ZM56.944 57.776C58.095 58.096 59.456 59.096 60.154 60.135C60.887 61.227 61.316 62.647 62.332 67.351C63.19 71.327 63.742 72.627 65.288 74.319C67.203 76.414 66.759 76.333 76.325 76.333C80.906 76.333 84.653 76.406 84.653 76.496C84.653 76.657 81.498 80.387 81.362 80.387C81.323 80.387 79.675 80.042 77.7 79.62C72.123 78.429 71.922 78.569 70.642 84.546L69.819 88.386L69.076 88.752C67.836 89.364 63.806 90.624 61.717 91.054C58.265 91.764 54.508 92.004 51.206 91.725C45.577 91.248 38.123 89.064 37.832 87.805C37.77 87.538 37.395 85.81 37 83.964C36.604 82.118 36.123 80.367 35.931 80.073C35.008 78.665 34.037 78.578 29.767 79.523C28.15 79.881 26.739 80.173 26.631 80.173C26.428 80.173 23.427 76.703 23.427 76.469C23.427 76.396 30.555 76.311 39.267 76.281L55.107 76.227L55.164 70.6C55.204 66.627 55.149 64.886 54.977 64.68C54.785 64.448 53.763 64.387 50.067 64.387H45.4V60.973V57.56L50.787 57.561C53.749 57.562 56.52 57.659 56.944 57.776ZM32.536 83.365C35.055 84.9 33.847 88.922 30.868 88.919C27.813 88.917 26.681 84.932 29.284 83.344C30.145 82.819 31.658 82.829 32.536 83.365ZM78.662 83.533C79.897 84.438 80.308 86.321 79.543 87.575C77.534 90.87 72.51 88.251 74.188 84.784C75.013 83.081 77.206 82.467 78.662 83.533Z"/>
</mask>
<path fill-rule="evenodd" clip-rule="evenodd" d="M53.271 1.88001C53.082 1.99001 52.289 3.12801 51.508 4.40901C49.548 7.62601 49.526 7.62801 46.893 4.85701C45.18 3.05501 44.766 2.72501 44.214 2.72901C43.855 2.73101 43.402 2.85301 43.206 3.00001C43.011 3.14701 42.458 4.31701 41.978 5.60001C40.879 8.53901 40.826 8.634 40.217 8.751C39.842 8.822 39.12 8.42001 37.389 7.17701C36.111 6.25801 34.857 5.50701 34.603 5.50701C33.549 5.50701 33.252 6.08301 32.75 9.10001C32.112 12.936 32.134 12.923 28.676 11.352C27.28 10.719 25.956 10.2 25.733 10.2C25.51 10.2 25.087 10.44 24.794 10.733C24.262 11.266 24.261 11.268 24.406 14.201L24.552 17.137L23.997 17.434C23.505 17.697 23.166 17.665 20.988 17.15C18.145 16.479 17.545 16.497 16.969 17.272L16.548 17.838L17.113 20.259C17.423 21.59 17.722 22.872 17.778 23.107C17.833 23.341 17.738 23.716 17.566 23.939C17.282 24.306 16.98 24.339 14.349 24.299C9.89596 24.229 9.64296 24.611 11.483 28.627C12.068 29.902 12.547 31.06 12.547 31.199C12.547 31.933 11.962 32.2 9.44896 32.61C8.04296 32.839 6.82096 33.027 6.73296 33.027C6.64496 33.027 6.38096 33.219 6.14696 33.453C5.38196 34.218 5.59896 34.936 7.33396 37.385C9.49496 40.435 9.49096 40.446 5.92096 41.812C1.86096 43.365 1.77896 43.748 4.86996 46.68C7.74896 49.41 7.75196 49.37 4.49296 51.419C2.02396 52.97 1.98596 53.007 1.92296 53.848C1.84696 54.871 1.86496 54.889 4.81296 56.69C7.72796 58.47 7.72796 58.524 4.86696 61.231C1.78996 64.141 1.88496 64.566 5.94796 66.099C9.49796 67.438 9.50296 67.454 7.33796 70.504C6.11096 72.233 5.71996 72.953 5.71996 73.487C5.71996 74.486 6.23996 74.741 9.34696 75.263C11.964 75.704 12.547 75.963 12.547 76.685C12.547 76.833 12.067 78.001 11.48 79.279C9.65396 83.256 9.86196 83.587 14.184 83.587C18.209 83.587 18.102 83.464 17.235 87.094C16.581 89.83 16.571 90.354 17.163 90.945C17.616 91.399 18.47 91.348 21.141 90.709C23.181 90.222 23.539 90.188 24.012 90.441L24.552 90.73L24.406 93.665C24.261 96.599 24.262 96.601 24.794 97.134C25.087 97.427 25.516 97.667 25.746 97.667C25.976 97.667 27.3 97.151 28.689 96.52C32.136 94.955 32.114 94.942 32.75 98.766C33.254 101.797 33.548 102.36 34.624 102.36C34.891 102.36 36.118 101.64 37.352 100.76C39.519 99.214 40.081 98.972 40.658 99.339C40.807 99.433 41.385 100.703 41.942 102.161C42.761 104.305 43.061 104.863 43.517 105.081C44.385 105.497 44.922 105.163 46.962 102.941C49.425 100.258 49.526 100.271 51.537 103.53C53.758 107.128 54.333 107.12 56.61 103.457C58.572 100.301 58.549 100.303 61.201 103.073C62.962 104.911 63.337 105.204 63.931 105.204C64.31 105.204 64.763 105.062 64.936 104.888C65.11 104.714 65.686 103.429 66.216 102.033C66.746 100.636 67.295 99.42 67.437 99.33C67.998 98.973 68.579 99.224 70.743 100.76C72.017 101.665 73.216 102.36 73.501 102.36C74.559 102.36 74.941 101.609 75.381 98.657C75.757 96.14 75.833 95.899 76.328 95.648C76.815 95.401 77.107 95.484 79.391 96.521C80.78 97.151 82.104 97.667 82.334 97.667C82.564 97.667 83 97.42 83.301 97.118L83.85 96.57L83.699 93.755C83.555 91.067 83.568 90.923 83.997 90.535C84.438 90.136 84.483 90.138 86.949 90.701C89.935 91.383 90.492 91.401 91.053 90.84C91.601 90.292 91.595 90.172 90.845 87.009C90.004 83.461 89.891 83.587 93.933 83.587C96.688 83.587 96.995 83.548 97.346 83.161C97.932 82.513 97.793 81.771 96.614 79.258C96.019 77.992 95.536 76.84 95.54 76.698C95.56 75.951 96.147 75.696 98.86 75.255C100.52 74.986 101.762 74.674 101.987 74.471C102.741 73.79 102.464 72.904 100.743 70.491C98.586 67.467 98.595 67.438 102.049 66.165C106.185 64.641 106.303 64.133 103.208 61.192C100.341 58.468 100.34 58.483 103.48 56.555C107.276 54.225 107.282 53.7 103.547 51.382C100.335 49.389 100.337 49.417 103.216 46.683C106.304 43.749 106.22 43.365 102.159 41.812C98.575 40.441 98.564 40.407 100.742 37.418C102.039 35.638 102.36 35.047 102.36 34.437C102.36 33.371 101.882 33.132 98.738 32.624C96.111 32.2 95.533 31.942 95.533 31.195C95.533 31.053 96.013 29.91 96.6 28.653C97.749 26.192 97.91 25.207 97.26 24.618C96.911 24.302 96.443 24.257 93.939 24.298C91.319 24.342 90.984 24.305 90.621 23.94C90.224 23.541 90.228 23.485 90.848 20.898C91.608 17.728 91.611 17.651 90.986 17.064C90.352 16.468 89.956 16.478 87.045 17.163C84.924 17.663 84.573 17.696 84.091 17.438L83.544 17.145L83.695 14.219L83.847 11.294L83.3 10.747C82.999 10.446 82.572 10.2 82.35 10.2C82.129 10.2 80.812 10.723 79.424 11.361C77.106 12.428 76.857 12.499 76.356 12.237C75.856 11.975 75.773 11.717 75.346 9.11001C74.853 6.09401 74.548 5.50701 73.477 5.50701C73.223 5.50701 71.964 6.262 70.679 7.185C68.569 8.701 68.286 8.844 67.76 8.661C67.325 8.509 67.072 8.178 66.763 7.355C66.534 6.749 66.096 5.58101 65.788 4.76001C65.166 3.10401 64.819 2.73301 63.887 2.73301C63.367 2.73301 62.896 3.107 61.208 4.86C58.555 7.616 58.545 7.61501 56.594 4.41501C55.814 3.13601 54.999 1.99401 54.782 1.87801C54.294 1.61601 53.72 1.61701 53.271 1.88001ZM55.689 11.515C58 13.16 56.771 17.027 53.937 17.027C51.187 17.027 49.802 13.714 51.766 11.833C52.874 10.771 54.463 10.642 55.689 11.515ZM52.783 21.729C54.298 22.305 54.92 21.959 58.379 18.625L60.978 16.119L62.078 16.265C65.528 16.723 72.39 19.737 76.333 22.526C79.956 25.09 84.771 30.312 86.823 33.903L87.262 34.672L85.318 39.052C84.248 41.461 83.373 43.685 83.373 43.996C83.373 44.713 83.843 45.847 84.296 46.222C84.487 46.381 86.302 47.255 88.329 48.164L92.013 49.818L92.158 50.755C92.345 51.976 92.37 54.975 92.2 55.827L92.067 56.493H89.964C87.525 56.493 87.713 56.275 87.581 59.267C87.485 61.436 86.961 62.635 85.769 63.411C83.827 64.678 80.62 64.448 79.26 62.945C79.051 62.714 78.645 61.553 78.357 60.364C77.516 56.891 76.386 54.941 74.116 53.044C73.399 52.445 72.813 51.886 72.813 51.801C72.813 51.717 73.601 51.053 74.565 50.328C78.075 47.682 80.093 44.602 80.315 41.551C80.738 35.732 76.102 30.308 69.206 28.55C67.571 28.133 66.873 28.12 46.646 28.12C35.166 28.12 25.773 28.045 25.773 27.954C25.773 27.739 28.324 25.263 29.827 24.021C33.954 20.609 39.315 17.924 44.867 16.49L46.787 15.993L49.515 18.759C51.016 20.28 52.487 21.616 52.783 21.729ZM18.432 39.526C19.689 40.349 20.204 42.417 19.462 43.66C18.314 45.584 15.406 45.665 14.257 43.805C12.586 41.103 15.804 37.804 18.432 39.526ZM92.482 39.631C95.77 41.636 93.222 46.568 89.702 45.011C87.352 43.971 87.277 40.759 89.575 39.587C90.534 39.098 91.636 39.115 92.482 39.631ZM28.12 51.907V64.173H22.698H17.276L16.846 62.307C16 58.632 15.644 54.83 15.857 51.716L16.006 49.528L19.734 47.856C22.073 46.808 23.577 46.009 23.771 45.712C24.619 44.419 24.538 43.495 23.348 40.867L22.792 39.64H25.456H28.12V51.907ZM59.34 40.174C61.662 40.778 62.889 42.007 62.892 43.73C62.894 44.995 62.267 45.789 60.712 46.491C59.611 46.989 59.436 47.001 52.493 47.069L45.4 47.137V43.495V39.853H51.755C56.719 39.853 58.38 39.923 59.34 40.174ZM56.944 57.776C58.095 58.096 59.456 59.096 60.154 60.135C60.887 61.227 61.316 62.647 62.332 67.351C63.19 71.327 63.742 72.627 65.288 74.319C67.203 76.414 66.759 76.333 76.325 76.333C80.906 76.333 84.653 76.406 84.653 76.496C84.653 76.657 81.498 80.387 81.362 80.387C81.323 80.387 79.675 80.042 77.7 79.62C72.123 78.429 71.922 78.569 70.642 84.546L69.819 88.386L69.076 88.752C67.836 89.364 63.806 90.624 61.717 91.054C58.265 91.764 54.508 92.004 51.206 91.725C45.577 91.248 38.123 89.064 37.832 87.805C37.77 87.538 37.395 85.81 37 83.964C36.604 82.118 36.123 80.367 35.931 80.073C35.008 78.665 34.037 78.578 29.767 79.523C28.15 79.881 26.739 80.173 26.631 80.173C26.428 80.173 23.427 76.703 23.427 76.469C23.427 76.396 30.555 76.311 39.267 76.281L55.107 76.227L55.164 70.6C55.204 66.627 55.149 64.886 54.977 64.68C54.785 64.448 53.763 64.387 50.067 64.387H45.4V60.973V57.56L50.787 57.561C53.749 57.562 56.52 57.659 56.944 57.776ZM32.536 83.365C35.055 84.9 33.847 88.922 30.868 88.919C27.813 88.917 26.681 84.932 29.284 83.344C30.145 82.819 31.658 82.829 32.536 83.365ZM78.662 83.533C79.897 84.438 80.308 86.321 79.543 87.575C77.534 90.87 72.51 88.251 74.188 84.784C75.013 83.081 77.206 82.467 78.662 83.533Z" fill="black"/>
<path fill-rule="evenodd" clip-rule="evenodd" d="M53.271 1.88001C53.082 1.99001 52.289 3.12801 51.508 4.40901C49.548 7.62601 49.526 7.62801 46.893 4.85701C45.18 3.05501 44.766 2.72501 44.214 2.72901C43.855 2.73101 43.402 2.85301 43.206 3.00001C43.011 3.14701 42.458 4.31701 41.978 5.60001C40.879 8.53901 40.826 8.634 40.217 8.751C39.842 8.822 39.12 8.42001 37.389 7.17701C36.111 6.25801 34.857 5.50701 34.603 5.50701C33.549 5.50701 33.252 6.08301 32.75 9.10001C32.112 12.936 32.134 12.923 28.676 11.352C27.28 10.719 25.956 10.2 25.733 10.2C25.51 10.2 25.087 10.44 24.794 10.733C24.262 11.266 24.261 11.268 24.406 14.201L24.552 17.137L23.997 17.434C23.505 17.697 23.166 17.665 20.988 17.15C18.145 16.479 17.545 16.497 16.969 17.272L16.548 17.838L17.113 20.259C17.423 21.59 17.722 22.872 17.778 23.107C17.833 23.341 17.738 23.716 17.566 23.939C17.282 24.306 16.98 24.339 14.349 24.299C9.89596 24.229 9.64296 24.611 11.483 28.627C12.068 29.902 12.547 31.06 12.547 31.199C12.547 31.933 11.962 32.2 9.44896 32.61C8.04296 32.839 6.82096 33.027 6.73296 33.027C6.64496 33.027 6.38096 33.219 6.14696 33.453C5.38196 34.218 5.59896 34.936 7.33396 37.385C9.49496 40.435 9.49096 40.446 5.92096 41.812C1.86096 43.365 1.77896 43.748 4.86996 46.68C7.74896 49.41 7.75196 49.37 4.49296 51.419C2.02396 52.97 1.98596 53.007 1.92296 53.848C1.84696 54.871 1.86496 54.889 4.81296 56.69C7.72796 58.47 7.72796 58.524 4.86696 61.231C1.78996 64.141 1.88496 64.566 5.94796 66.099C9.49796 67.438 9.50296 67.454 7.33796 70.504C6.11096 72.233 5.71996 72.953 5.71996 73.487C5.71996 74.486 6.23996 74.741 9.34696 75.263C11.964 75.704 12.547 75.963 12.547 76.685C12.547 76.833 12.067 78.001 11.48 79.279C9.65396 83.256 9.86196 83.587 14.184 83.587C18.209 83.587 18.102 83.464 17.235 87.094C16.581 89.83 16.571 90.354 17.163 90.945C17.616 91.399 18.47 91.348 21.141 90.709C23.181 90.222 23.539 90.188 24.012 90.441L24.552 90.73L24.406 93.665C24.261 96.599 24.262 96.601 24.794 97.134C25.087 97.427 25.516 97.667 25.746 97.667C25.976 97.667 27.3 97.151 28.689 96.52C32.136 94.955 32.114 94.942 32.75 98.766C33.254 101.797 33.548 102.36 34.624 102.36C34.891 102.36 36.118 101.64 37.352 100.76C39.519 99.214 40.081 98.972 40.658 99.339C40.807 99.433 41.385 100.703 41.942 102.161C42.761 104.305 43.061 104.863 43.517 105.081C44.385 105.497 44.922 105.163 46.962 102.941C49.425 100.258 49.526 100.271 51.537 103.53C53.758 107.128 54.333 107.12 56.61 103.457C58.572 100.301 58.549 100.303 61.201 103.073C62.962 104.911 63.337 105.204 63.931 105.204C64.31 105.204 64.763 105.062 64.936 104.888C65.11 104.714 65.686 103.429 66.216 102.033C66.746 100.636 67.295 99.42 67.437 99.33C67.998 98.973 68.579 99.224 70.743 100.76C72.017 101.665 73.216 102.36 73.501 102.36C74.559 102.36 74.941 101.609 75.381 98.657C75.757 96.14 75.833 95.899 76.328 95.648C76.815 95.401 77.107 95.484 79.391 96.521C80.78 97.151 82.104 97.667 82.334 97.667C82.564 97.667 83 97.42 83.301 97.118L83.85 96.57L83.699 93.755C83.555 91.067 83.568 90.923 83.997 90.535C84.438 90.136 84.483 90.138 86.949 90.701C89.935 91.383 90.492 91.401 91.053 90.84C91.601 90.292 91.595 90.172 90.845 87.009C90.004 83.461 89.891 83.587 93.933 83.587C96.688 83.587 96.995 83.548 97.346 83.161C97.932 82.513 97.793 81.771 96.614 79.258C96.019 77.992 95.536 76.84 95.54 76.698C95.56 75.951 96.147 75.696 98.86 75.255C100.52 74.986 101.762 74.674 101.987 74.471C102.741 73.79 102.464 72.904 100.743 70.491C98.586 67.467 98.595 67.438 102.049 66.165C106.185 64.641 106.303 64.133 103.208 61.192C100.341 58.468 100.34 58.483 103.48 56.555C107.276 54.225 107.282 53.7 103.547 51.382C100.335 49.389 100.337 49.417 103.216 46.683C106.304 43.749 106.22 43.365 102.159 41.812C98.575 40.441 98.564 40.407 100.742 37.418C102.039 35.638 102.36 35.047 102.36 34.437C102.36 33.371 101.882 33.132 98.738 32.624C96.111 32.2 95.533 31.942 95.533 31.195C95.533 31.053 96.013 29.91 96.6 28.653C97.749 26.192 97.91 25.207 97.26 24.618C96.911 24.302 96.443 24.257 93.939 24.298C91.319 24.342 90.984 24.305 90.621 23.94C90.224 23.541 90.228 23.485 90.848 20.898C91.608 17.728 91.611 17.651 90.986 17.064C90.352 16.468 89.956 16.478 87.045 17.163C84.924 17.663 84.573 17.696 84.091 17.438L83.544 17.145L83.695 14.219L83.847 11.294L83.3 10.747C82.999 10.446 82.572 10.2 82.35 10.2C82.129 10.2 80.812 10.723 79.424 11.361C77.106 12.428 76.857 12.499 76.356 12.237C75.856 11.975 75.773 11.717 75.346 9.11001C74.853 6.09401 74.548 5.50701 73.477 5.50701C73.223 5.50701 71.964 6.262 70.679 7.185C68.569 8.701 68.286 8.844 67.76 8.661C67.325 8.509 67.072 8.178 66.763 7.355C66.534 6.749 66.096 5.58101 65.788 4.76001C65.166 3.10401 64.819 2.73301 63.887 2.73301C63.367 2.73301 62.896 3.107 61.208 4.86C58.555 7.616 58.545 7.61501 56.594 4.41501C55.814 3.13601 54.999 1.99401 54.782 1.87801C54.294 1.61601 53.72 1.61701 53.271 1.88001ZM55.689 11.515C58 13.16 56.771 17.027 53.937 17.027C51.187 17.027 49.802 13.714 51.766 11.833C52.874 10.771 54.463 10.642 55.689 11.515ZM52.783 21.729C54.298 22.305 54.92 21.959 58.379 18.625L60.978 16.119L62.078 16.265C65.528 16.723 72.39 19.737 76.333 22.526C79.956 25.09 84.771 30.312 86.823 33.903L87.262 34.672L85.318 39.052C84.248 41.461 83.373 43.685 83.373 43.996C83.373 44.713 83.843 45.847 84.296 46.222C84.487 46.381 86.302 47.255 88.329 48.164L92.013 49.818L92.158 50.755C92.345 51.976 92.37 54.975 92.2 55.827L92.067 56.493H89.964C87.525 56.493 87.713 56.275 87.581 59.267C87.485 61.436 86.961 62.635 85.769 63.411C83.827 64.678 80.62 64.448 79.26 62.945C79.051 62.714 78.645 61.553 78.357 60.364C77.516 56.891 76.386 54.941 74.116 53.044C73.399 52.445 72.813 51.886 72.813 51.801C72.813 51.717 73.601 51.053 74.565 50.328C78.075 47.682 80.093 44.602 80.315 41.551C80.738 35.732 76.102 30.308 69.206 28.55C67.571 28.133 66.873 28.12 46.646 28.12C35.166 28.12 25.773 28.045 25.773 27.954C25.773 27.739 28.324 25.263 29.827 24.021C33.954 20.609 39.315 17.924 44.867 16.49L46.787 15.993L49.515 18.759C51.016 20.28 52.487 21.616 52.783 21.729ZM18.432 39.526C19.689 40.349 20.204 42.417 19.462 43.66C18.314 45.584 15.406 45.665 14.257 43.805C12.586 41.103 15.804 37.804 18.432 39.526ZM92.482 39.631C95.77 41.636 93.222 46.568 89.702 45.011C87.352 43.971 87.277 40.759 89.575 39.587C90.534 39.098 91.636 39.115 92.482 39.631ZM28.12 51.907V64.173H22.698H17.276L16.846 62.307C16 58.632 15.644 54.83 15.857 51.716L16.006 49.528L19.734 47.856C22.073 46.808 23.577 46.009 23.771 45.712C24.619 44.419 24.538 43.495 23.348 40.867L22.792 39.64H25.456H28.12V51.907ZM59.34 40.174C61.662 40.778 62.889 42.007 62.892 43.73C62.894 44.995 62.267 45.789 60.712 46.491C59.611 46.989 59.436 47.001 52.493 47.069L45.4 47.137V43.495V39.853H51.755C56.719 39.853 58.38 39.923 59.34 40.174ZM56.944 57.776C58.095 58.096 59.456 59.096 60.154 60.135C60.887 61.227 61.316 62.647 62.332 67.351C63.19 71.327 63.742 72.627 65.288 74.319C67.203 76.414 66.759 76.333 76.325 76.333C80.906 76.333 84.653 76.406 84.653 76.496C84.653 76.657 81.498 80.387 81.362 80.387C81.323 80.387 79.675 80.042 77.7 79.62C72.123 78.429 71.922 78.569 70.642 84.546L69.819 88.386L69.076 88.752C67.836 89.364 63.806 90.624 61.717 91.054C58.265 91.764 54.508 92.004 51.206 91.725C45.577 91.248 38.123 89.064 37.832 87.805C37.77 87.538 37.395 85.81 37 83.964C36.604 82.118 36.123 80.367 35.931 80.073C35.008 78.665 34.037 78.578 29.767 79.523C28.15 79.881 26.739 80.173 26.631 80.173C26.428 80.173 23.427 76.703 23.427 76.469C23.427 76.396 30.555 76.311 39.267 76.281L55.107 76.227L55.164 70.6C55.204 66.627 55.149 64.886 54.977 64.68C54.785 64.448 53.763 64.387 50.067 64.387H45.4V60.973V57.56L50.787 57.561C53.749 57.562 56.52 57.659 56.944 57.776ZM32.536 83.365C35.055 84.9 33.847 88.922 30.868 88.919C27.813 88.917 26.681 84.932 29.284 83.344C30.145 82.819 31.658 82.829 32.536 83.365ZM78.662 83.533C79.897 84.438 80.308 86.321 79.543 87.575C77.534 90.87 72.51 88.251 74.188 84.784C75.013 83.081 77.206 82.467 78.662 83.533Z" stroke="white" stroke-width="2" mask="url(#path-1-outside-1)"/>
</svg>
